<mxfile host="app.diagrams.net" modified="2023-08-13T12:19:46.962Z" agent="Mozilla/5.0 (Windows NT 10.0; Win64; x64) AppleWebKit/537.36 (KHTML, like Gecko) Chrome/115.0.0.0 Safari/537.36 Edg/115.0.1901.203" etag="TgONGreXaCZZcClYwWOV" version="21.6.8" type="github">
  <diagram name="Page-1" id="HKyvYqg3US4BJIOSQswX">
    <mxGraphModel dx="3148" dy="2490" grid="1" gridSize="10" guides="1" tooltips="1" connect="1" arrows="1" fold="1" page="1" pageScale="1" pageWidth="850" pageHeight="1100" math="0" shadow="0">
      <root>
        <mxCell id="0" />
        <mxCell id="1" parent="0" />
        <mxCell id="4BjtTrV5bBAlcVHx1rWV-1" value="" style="shape=table;startSize=0;container=1;collapsible=0;childLayout=tableLayout;fontFamily=Times New Roman;fillColor=#ffe6cc;strokeColor=#d79b00;" vertex="1" parent="1">
          <mxGeometry x="320" y="360" width="160" height="160" as="geometry" />
        </mxCell>
        <mxCell id="4BjtTrV5bBAlcVHx1rWV-2" value="" style="shape=tableRow;horizontal=0;startSize=0;swimlaneHead=0;swimlaneBody=0;strokeColor=inherit;top=0;left=0;bottom=0;right=0;collapsible=0;dropTarget=0;fillColor=none;points=[[0,0.5],[1,0.5]];portConstraint=eastwest;fontFamily=Times New Roman;" vertex="1" parent="4BjtTrV5bBAlcVHx1rWV-1">
          <mxGeometry width="160" height="40" as="geometry" />
        </mxCell>
        <mxCell id="4BjtTrV5bBAlcVHx1rWV-3" value="PE" style="shape=partialRectangle;html=1;whiteSpace=wrap;connectable=0;strokeColor=inherit;overflow=hidden;fillColor=none;top=0;left=0;bottom=0;right=0;pointerEvents=1;fontFamily=Times New Roman;" vertex="1" parent="4BjtTrV5bBAlcVHx1rWV-2">
          <mxGeometry width="40" height="40" as="geometry">
            <mxRectangle width="40" height="40" as="alternateBounds" />
          </mxGeometry>
        </mxCell>
        <mxCell id="4BjtTrV5bBAlcVHx1rWV-4" value="PE" style="shape=partialRectangle;html=1;whiteSpace=wrap;connectable=0;strokeColor=inherit;overflow=hidden;fillColor=none;top=0;left=0;bottom=0;right=0;pointerEvents=1;fontFamily=Times New Roman;" vertex="1" parent="4BjtTrV5bBAlcVHx1rWV-2">
          <mxGeometry x="40" width="40" height="40" as="geometry">
            <mxRectangle width="40" height="40" as="alternateBounds" />
          </mxGeometry>
        </mxCell>
        <mxCell id="4BjtTrV5bBAlcVHx1rWV-5" value="PE" style="shape=partialRectangle;html=1;whiteSpace=wrap;connectable=0;strokeColor=inherit;overflow=hidden;fillColor=none;top=0;left=0;bottom=0;right=0;pointerEvents=1;fontFamily=Times New Roman;" vertex="1" parent="4BjtTrV5bBAlcVHx1rWV-2">
          <mxGeometry x="80" width="40" height="40" as="geometry">
            <mxRectangle width="40" height="40" as="alternateBounds" />
          </mxGeometry>
        </mxCell>
        <mxCell id="4BjtTrV5bBAlcVHx1rWV-6" value="PE" style="shape=partialRectangle;html=1;whiteSpace=wrap;connectable=0;strokeColor=inherit;overflow=hidden;fillColor=none;top=0;left=0;bottom=0;right=0;pointerEvents=1;fontFamily=Times New Roman;" vertex="1" parent="4BjtTrV5bBAlcVHx1rWV-2">
          <mxGeometry x="120" width="40" height="40" as="geometry">
            <mxRectangle width="40" height="40" as="alternateBounds" />
          </mxGeometry>
        </mxCell>
        <mxCell id="4BjtTrV5bBAlcVHx1rWV-7" value="" style="shape=tableRow;horizontal=0;startSize=0;swimlaneHead=0;swimlaneBody=0;strokeColor=inherit;top=0;left=0;bottom=0;right=0;collapsible=0;dropTarget=0;fillColor=none;points=[[0,0.5],[1,0.5]];portConstraint=eastwest;fontFamily=Times New Roman;" vertex="1" parent="4BjtTrV5bBAlcVHx1rWV-1">
          <mxGeometry y="40" width="160" height="40" as="geometry" />
        </mxCell>
        <mxCell id="4BjtTrV5bBAlcVHx1rWV-8" value="PE" style="shape=partialRectangle;html=1;whiteSpace=wrap;connectable=0;strokeColor=inherit;overflow=hidden;fillColor=none;top=0;left=0;bottom=0;right=0;pointerEvents=1;fontFamily=Times New Roman;" vertex="1" parent="4BjtTrV5bBAlcVHx1rWV-7">
          <mxGeometry width="40" height="40" as="geometry">
            <mxRectangle width="40" height="40" as="alternateBounds" />
          </mxGeometry>
        </mxCell>
        <mxCell id="4BjtTrV5bBAlcVHx1rWV-9" value="PE" style="shape=partialRectangle;html=1;whiteSpace=wrap;connectable=0;strokeColor=inherit;overflow=hidden;fillColor=none;top=0;left=0;bottom=0;right=0;pointerEvents=1;fontFamily=Times New Roman;" vertex="1" parent="4BjtTrV5bBAlcVHx1rWV-7">
          <mxGeometry x="40" width="40" height="40" as="geometry">
            <mxRectangle width="40" height="40" as="alternateBounds" />
          </mxGeometry>
        </mxCell>
        <mxCell id="4BjtTrV5bBAlcVHx1rWV-10" value="PE" style="shape=partialRectangle;html=1;whiteSpace=wrap;connectable=0;strokeColor=inherit;overflow=hidden;fillColor=none;top=0;left=0;bottom=0;right=0;pointerEvents=1;fontFamily=Times New Roman;" vertex="1" parent="4BjtTrV5bBAlcVHx1rWV-7">
          <mxGeometry x="80" width="40" height="40" as="geometry">
            <mxRectangle width="40" height="40" as="alternateBounds" />
          </mxGeometry>
        </mxCell>
        <mxCell id="4BjtTrV5bBAlcVHx1rWV-11" value="PE" style="shape=partialRectangle;html=1;whiteSpace=wrap;connectable=0;strokeColor=inherit;overflow=hidden;fillColor=none;top=0;left=0;bottom=0;right=0;pointerEvents=1;fontFamily=Times New Roman;" vertex="1" parent="4BjtTrV5bBAlcVHx1rWV-7">
          <mxGeometry x="120" width="40" height="40" as="geometry">
            <mxRectangle width="40" height="40" as="alternateBounds" />
          </mxGeometry>
        </mxCell>
        <mxCell id="4BjtTrV5bBAlcVHx1rWV-12" value="" style="shape=tableRow;horizontal=0;startSize=0;swimlaneHead=0;swimlaneBody=0;strokeColor=inherit;top=0;left=0;bottom=0;right=0;collapsible=0;dropTarget=0;fillColor=none;points=[[0,0.5],[1,0.5]];portConstraint=eastwest;fontFamily=Times New Roman;" vertex="1" parent="4BjtTrV5bBAlcVHx1rWV-1">
          <mxGeometry y="80" width="160" height="40" as="geometry" />
        </mxCell>
        <mxCell id="4BjtTrV5bBAlcVHx1rWV-13" value="PE" style="shape=partialRectangle;html=1;whiteSpace=wrap;connectable=0;strokeColor=inherit;overflow=hidden;fillColor=none;top=0;left=0;bottom=0;right=0;pointerEvents=1;fontFamily=Times New Roman;" vertex="1" parent="4BjtTrV5bBAlcVHx1rWV-12">
          <mxGeometry width="40" height="40" as="geometry">
            <mxRectangle width="40" height="40" as="alternateBounds" />
          </mxGeometry>
        </mxCell>
        <mxCell id="4BjtTrV5bBAlcVHx1rWV-14" value="PE" style="shape=partialRectangle;html=1;whiteSpace=wrap;connectable=0;strokeColor=inherit;overflow=hidden;fillColor=none;top=0;left=0;bottom=0;right=0;pointerEvents=1;fontFamily=Times New Roman;" vertex="1" parent="4BjtTrV5bBAlcVHx1rWV-12">
          <mxGeometry x="40" width="40" height="40" as="geometry">
            <mxRectangle width="40" height="40" as="alternateBounds" />
          </mxGeometry>
        </mxCell>
        <mxCell id="4BjtTrV5bBAlcVHx1rWV-15" value="PE" style="shape=partialRectangle;html=1;whiteSpace=wrap;connectable=0;strokeColor=inherit;overflow=hidden;fillColor=none;top=0;left=0;bottom=0;right=0;pointerEvents=1;fontFamily=Times New Roman;" vertex="1" parent="4BjtTrV5bBAlcVHx1rWV-12">
          <mxGeometry x="80" width="40" height="40" as="geometry">
            <mxRectangle width="40" height="40" as="alternateBounds" />
          </mxGeometry>
        </mxCell>
        <mxCell id="4BjtTrV5bBAlcVHx1rWV-16" value="PE" style="shape=partialRectangle;html=1;whiteSpace=wrap;connectable=0;strokeColor=inherit;overflow=hidden;fillColor=none;top=0;left=0;bottom=0;right=0;pointerEvents=1;fontFamily=Times New Roman;" vertex="1" parent="4BjtTrV5bBAlcVHx1rWV-12">
          <mxGeometry x="120" width="40" height="40" as="geometry">
            <mxRectangle width="40" height="40" as="alternateBounds" />
          </mxGeometry>
        </mxCell>
        <mxCell id="4BjtTrV5bBAlcVHx1rWV-17" value="" style="shape=tableRow;horizontal=0;startSize=0;swimlaneHead=0;swimlaneBody=0;strokeColor=inherit;top=0;left=0;bottom=0;right=0;collapsible=0;dropTarget=0;fillColor=none;points=[[0,0.5],[1,0.5]];portConstraint=eastwest;fontFamily=Times New Roman;" vertex="1" parent="4BjtTrV5bBAlcVHx1rWV-1">
          <mxGeometry y="120" width="160" height="40" as="geometry" />
        </mxCell>
        <mxCell id="4BjtTrV5bBAlcVHx1rWV-18" value="PE" style="shape=partialRectangle;html=1;whiteSpace=wrap;connectable=0;strokeColor=inherit;overflow=hidden;fillColor=none;top=0;left=0;bottom=0;right=0;pointerEvents=1;fontFamily=Times New Roman;" vertex="1" parent="4BjtTrV5bBAlcVHx1rWV-17">
          <mxGeometry width="40" height="40" as="geometry">
            <mxRectangle width="40" height="40" as="alternateBounds" />
          </mxGeometry>
        </mxCell>
        <mxCell id="4BjtTrV5bBAlcVHx1rWV-19" value="PE" style="shape=partialRectangle;html=1;whiteSpace=wrap;connectable=0;strokeColor=inherit;overflow=hidden;fillColor=none;top=0;left=0;bottom=0;right=0;pointerEvents=1;fontFamily=Times New Roman;" vertex="1" parent="4BjtTrV5bBAlcVHx1rWV-17">
          <mxGeometry x="40" width="40" height="40" as="geometry">
            <mxRectangle width="40" height="40" as="alternateBounds" />
          </mxGeometry>
        </mxCell>
        <mxCell id="4BjtTrV5bBAlcVHx1rWV-20" value="PE" style="shape=partialRectangle;html=1;whiteSpace=wrap;connectable=0;strokeColor=inherit;overflow=hidden;fillColor=none;top=0;left=0;bottom=0;right=0;pointerEvents=1;fontFamily=Times New Roman;" vertex="1" parent="4BjtTrV5bBAlcVHx1rWV-17">
          <mxGeometry x="80" width="40" height="40" as="geometry">
            <mxRectangle width="40" height="40" as="alternateBounds" />
          </mxGeometry>
        </mxCell>
        <mxCell id="4BjtTrV5bBAlcVHx1rWV-21" value="PE" style="shape=partialRectangle;html=1;whiteSpace=wrap;connectable=0;strokeColor=inherit;overflow=hidden;fillColor=none;top=0;left=0;bottom=0;right=0;pointerEvents=1;fontFamily=Times New Roman;" vertex="1" parent="4BjtTrV5bBAlcVHx1rWV-17">
          <mxGeometry x="120" width="40" height="40" as="geometry">
            <mxRectangle width="40" height="40" as="alternateBounds" />
          </mxGeometry>
        </mxCell>
        <mxCell id="4BjtTrV5bBAlcVHx1rWV-22" value="" style="shape=table;startSize=0;container=1;collapsible=0;childLayout=tableLayout;strokeColor=default;fillColor=default;dashed=1;fontFamily=Times New Roman;" vertex="1" parent="1">
          <mxGeometry y="360" width="280" height="160" as="geometry" />
        </mxCell>
        <mxCell id="4BjtTrV5bBAlcVHx1rWV-23" value="" style="shape=tableRow;horizontal=0;startSize=0;swimlaneHead=0;swimlaneBody=0;strokeColor=inherit;top=0;left=0;bottom=0;right=0;collapsible=0;dropTarget=0;fillColor=none;points=[[0,0.5],[1,0.5]];portConstraint=eastwest;fontFamily=Times New Roman;" vertex="1" parent="4BjtTrV5bBAlcVHx1rWV-22">
          <mxGeometry width="280" height="40" as="geometry" />
        </mxCell>
        <mxCell id="4BjtTrV5bBAlcVHx1rWV-83" style="shape=partialRectangle;html=1;whiteSpace=wrap;connectable=0;strokeColor=inherit;overflow=hidden;fillColor=none;top=0;left=0;bottom=0;right=0;pointerEvents=1;fontFamily=Times New Roman;" vertex="1" parent="4BjtTrV5bBAlcVHx1rWV-23">
          <mxGeometry width="40" height="40" as="geometry">
            <mxRectangle width="40" height="40" as="alternateBounds" />
          </mxGeometry>
        </mxCell>
        <mxCell id="4BjtTrV5bBAlcVHx1rWV-87" style="shape=partialRectangle;html=1;whiteSpace=wrap;connectable=0;strokeColor=inherit;overflow=hidden;fillColor=none;top=0;left=0;bottom=0;right=0;pointerEvents=1;fontFamily=Times New Roman;" vertex="1" parent="4BjtTrV5bBAlcVHx1rWV-23">
          <mxGeometry x="40" width="40" height="40" as="geometry">
            <mxRectangle width="40" height="40" as="alternateBounds" />
          </mxGeometry>
        </mxCell>
        <mxCell id="4BjtTrV5bBAlcVHx1rWV-91" style="shape=partialRectangle;html=1;whiteSpace=wrap;connectable=0;strokeColor=inherit;overflow=hidden;fillColor=none;top=0;left=0;bottom=0;right=0;pointerEvents=1;fontFamily=Times New Roman;" vertex="1" parent="4BjtTrV5bBAlcVHx1rWV-23">
          <mxGeometry x="80" width="40" height="40" as="geometry">
            <mxRectangle width="40" height="40" as="alternateBounds" />
          </mxGeometry>
        </mxCell>
        <mxCell id="4BjtTrV5bBAlcVHx1rWV-24" value="1" style="shape=partialRectangle;html=1;whiteSpace=wrap;connectable=0;strokeColor=inherit;overflow=hidden;fillColor=none;top=0;left=0;bottom=0;right=0;pointerEvents=1;fontFamily=Times New Roman;" vertex="1" parent="4BjtTrV5bBAlcVHx1rWV-23">
          <mxGeometry x="120" width="40" height="40" as="geometry">
            <mxRectangle width="40" height="40" as="alternateBounds" />
          </mxGeometry>
        </mxCell>
        <mxCell id="4BjtTrV5bBAlcVHx1rWV-25" value="2" style="shape=partialRectangle;html=1;whiteSpace=wrap;connectable=0;strokeColor=inherit;overflow=hidden;fillColor=none;top=0;left=0;bottom=0;right=0;pointerEvents=1;fontFamily=Times New Roman;" vertex="1" parent="4BjtTrV5bBAlcVHx1rWV-23">
          <mxGeometry x="160" width="40" height="40" as="geometry">
            <mxRectangle width="40" height="40" as="alternateBounds" />
          </mxGeometry>
        </mxCell>
        <mxCell id="4BjtTrV5bBAlcVHx1rWV-26" value="3" style="shape=partialRectangle;html=1;whiteSpace=wrap;connectable=0;strokeColor=inherit;overflow=hidden;fillColor=none;top=0;left=0;bottom=0;right=0;pointerEvents=1;fontFamily=Times New Roman;" vertex="1" parent="4BjtTrV5bBAlcVHx1rWV-23">
          <mxGeometry x="200" width="40" height="40" as="geometry">
            <mxRectangle width="40" height="40" as="alternateBounds" />
          </mxGeometry>
        </mxCell>
        <mxCell id="4BjtTrV5bBAlcVHx1rWV-27" value="4" style="shape=partialRectangle;html=1;whiteSpace=wrap;connectable=0;strokeColor=inherit;overflow=hidden;fillColor=none;top=0;left=0;bottom=0;right=0;pointerEvents=1;fontFamily=Times New Roman;" vertex="1" parent="4BjtTrV5bBAlcVHx1rWV-23">
          <mxGeometry x="240" width="40" height="40" as="geometry">
            <mxRectangle width="40" height="40" as="alternateBounds" />
          </mxGeometry>
        </mxCell>
        <mxCell id="4BjtTrV5bBAlcVHx1rWV-28" value="" style="shape=tableRow;horizontal=0;startSize=0;swimlaneHead=0;swimlaneBody=0;strokeColor=inherit;top=0;left=0;bottom=0;right=0;collapsible=0;dropTarget=0;fillColor=none;points=[[0,0.5],[1,0.5]];portConstraint=eastwest;fontFamily=Times New Roman;" vertex="1" parent="4BjtTrV5bBAlcVHx1rWV-22">
          <mxGeometry y="40" width="280" height="40" as="geometry" />
        </mxCell>
        <mxCell id="4BjtTrV5bBAlcVHx1rWV-84" style="shape=partialRectangle;html=1;whiteSpace=wrap;connectable=0;strokeColor=inherit;overflow=hidden;fillColor=none;top=0;left=0;bottom=0;right=0;pointerEvents=1;fontFamily=Times New Roman;" vertex="1" parent="4BjtTrV5bBAlcVHx1rWV-28">
          <mxGeometry width="40" height="40" as="geometry">
            <mxRectangle width="40" height="40" as="alternateBounds" />
          </mxGeometry>
        </mxCell>
        <mxCell id="4BjtTrV5bBAlcVHx1rWV-88" style="shape=partialRectangle;html=1;whiteSpace=wrap;connectable=0;strokeColor=inherit;overflow=hidden;fillColor=none;top=0;left=0;bottom=0;right=0;pointerEvents=1;fontFamily=Times New Roman;" vertex="1" parent="4BjtTrV5bBAlcVHx1rWV-28">
          <mxGeometry x="40" width="40" height="40" as="geometry">
            <mxRectangle width="40" height="40" as="alternateBounds" />
          </mxGeometry>
        </mxCell>
        <mxCell id="4BjtTrV5bBAlcVHx1rWV-92" value="5" style="shape=partialRectangle;html=1;whiteSpace=wrap;connectable=0;strokeColor=inherit;overflow=hidden;fillColor=none;top=0;left=0;bottom=0;right=0;pointerEvents=1;fontFamily=Times New Roman;" vertex="1" parent="4BjtTrV5bBAlcVHx1rWV-28">
          <mxGeometry x="80" width="40" height="40" as="geometry">
            <mxRectangle width="40" height="40" as="alternateBounds" />
          </mxGeometry>
        </mxCell>
        <mxCell id="4BjtTrV5bBAlcVHx1rWV-29" value="6" style="shape=partialRectangle;html=1;whiteSpace=wrap;connectable=0;strokeColor=inherit;overflow=hidden;fillColor=none;top=0;left=0;bottom=0;right=0;pointerEvents=1;fontFamily=Times New Roman;" vertex="1" parent="4BjtTrV5bBAlcVHx1rWV-28">
          <mxGeometry x="120" width="40" height="40" as="geometry">
            <mxRectangle width="40" height="40" as="alternateBounds" />
          </mxGeometry>
        </mxCell>
        <mxCell id="4BjtTrV5bBAlcVHx1rWV-30" value="7" style="shape=partialRectangle;html=1;whiteSpace=wrap;connectable=0;strokeColor=inherit;overflow=hidden;fillColor=none;top=0;left=0;bottom=0;right=0;pointerEvents=1;fontFamily=Times New Roman;" vertex="1" parent="4BjtTrV5bBAlcVHx1rWV-28">
          <mxGeometry x="160" width="40" height="40" as="geometry">
            <mxRectangle width="40" height="40" as="alternateBounds" />
          </mxGeometry>
        </mxCell>
        <mxCell id="4BjtTrV5bBAlcVHx1rWV-31" value="8" style="shape=partialRectangle;html=1;whiteSpace=wrap;connectable=0;strokeColor=inherit;overflow=hidden;fillColor=none;top=0;left=0;bottom=0;right=0;pointerEvents=1;fontFamily=Times New Roman;" vertex="1" parent="4BjtTrV5bBAlcVHx1rWV-28">
          <mxGeometry x="200" width="40" height="40" as="geometry">
            <mxRectangle width="40" height="40" as="alternateBounds" />
          </mxGeometry>
        </mxCell>
        <mxCell id="4BjtTrV5bBAlcVHx1rWV-32" value="" style="shape=partialRectangle;html=1;whiteSpace=wrap;connectable=0;strokeColor=inherit;overflow=hidden;fillColor=none;top=0;left=0;bottom=0;right=0;pointerEvents=1;fontFamily=Times New Roman;" vertex="1" parent="4BjtTrV5bBAlcVHx1rWV-28">
          <mxGeometry x="240" width="40" height="40" as="geometry">
            <mxRectangle width="40" height="40" as="alternateBounds" />
          </mxGeometry>
        </mxCell>
        <mxCell id="4BjtTrV5bBAlcVHx1rWV-33" value="" style="shape=tableRow;horizontal=0;startSize=0;swimlaneHead=0;swimlaneBody=0;strokeColor=inherit;top=0;left=0;bottom=0;right=0;collapsible=0;dropTarget=0;fillColor=none;points=[[0,0.5],[1,0.5]];portConstraint=eastwest;fontFamily=Times New Roman;" vertex="1" parent="4BjtTrV5bBAlcVHx1rWV-22">
          <mxGeometry y="80" width="280" height="40" as="geometry" />
        </mxCell>
        <mxCell id="4BjtTrV5bBAlcVHx1rWV-85" style="shape=partialRectangle;html=1;whiteSpace=wrap;connectable=0;strokeColor=inherit;overflow=hidden;fillColor=none;top=0;left=0;bottom=0;right=0;pointerEvents=1;fontFamily=Times New Roman;" vertex="1" parent="4BjtTrV5bBAlcVHx1rWV-33">
          <mxGeometry width="40" height="40" as="geometry">
            <mxRectangle width="40" height="40" as="alternateBounds" />
          </mxGeometry>
        </mxCell>
        <mxCell id="4BjtTrV5bBAlcVHx1rWV-89" value="9" style="shape=partialRectangle;html=1;whiteSpace=wrap;connectable=0;strokeColor=inherit;overflow=hidden;fillColor=none;top=0;left=0;bottom=0;right=0;pointerEvents=1;fontFamily=Times New Roman;" vertex="1" parent="4BjtTrV5bBAlcVHx1rWV-33">
          <mxGeometry x="40" width="40" height="40" as="geometry">
            <mxRectangle width="40" height="40" as="alternateBounds" />
          </mxGeometry>
        </mxCell>
        <mxCell id="4BjtTrV5bBAlcVHx1rWV-93" value="10" style="shape=partialRectangle;html=1;whiteSpace=wrap;connectable=0;strokeColor=inherit;overflow=hidden;fillColor=none;top=0;left=0;bottom=0;right=0;pointerEvents=1;fontFamily=Times New Roman;" vertex="1" parent="4BjtTrV5bBAlcVHx1rWV-33">
          <mxGeometry x="80" width="40" height="40" as="geometry">
            <mxRectangle width="40" height="40" as="alternateBounds" />
          </mxGeometry>
        </mxCell>
        <mxCell id="4BjtTrV5bBAlcVHx1rWV-34" value="11" style="shape=partialRectangle;html=1;whiteSpace=wrap;connectable=0;strokeColor=inherit;overflow=hidden;fillColor=none;top=0;left=0;bottom=0;right=0;pointerEvents=1;fontFamily=Times New Roman;" vertex="1" parent="4BjtTrV5bBAlcVHx1rWV-33">
          <mxGeometry x="120" width="40" height="40" as="geometry">
            <mxRectangle width="40" height="40" as="alternateBounds" />
          </mxGeometry>
        </mxCell>
        <mxCell id="4BjtTrV5bBAlcVHx1rWV-35" value="12" style="shape=partialRectangle;html=1;whiteSpace=wrap;connectable=0;strokeColor=inherit;overflow=hidden;fillColor=none;top=0;left=0;bottom=0;right=0;pointerEvents=1;fontFamily=Times New Roman;" vertex="1" parent="4BjtTrV5bBAlcVHx1rWV-33">
          <mxGeometry x="160" width="40" height="40" as="geometry">
            <mxRectangle width="40" height="40" as="alternateBounds" />
          </mxGeometry>
        </mxCell>
        <mxCell id="4BjtTrV5bBAlcVHx1rWV-36" value="" style="shape=partialRectangle;html=1;whiteSpace=wrap;connectable=0;strokeColor=inherit;overflow=hidden;fillColor=none;top=0;left=0;bottom=0;right=0;pointerEvents=1;fontFamily=Times New Roman;" vertex="1" parent="4BjtTrV5bBAlcVHx1rWV-33">
          <mxGeometry x="200" width="40" height="40" as="geometry">
            <mxRectangle width="40" height="40" as="alternateBounds" />
          </mxGeometry>
        </mxCell>
        <mxCell id="4BjtTrV5bBAlcVHx1rWV-37" value="" style="shape=partialRectangle;html=1;whiteSpace=wrap;connectable=0;strokeColor=inherit;overflow=hidden;fillColor=none;top=0;left=0;bottom=0;right=0;pointerEvents=1;fontFamily=Times New Roman;" vertex="1" parent="4BjtTrV5bBAlcVHx1rWV-33">
          <mxGeometry x="240" width="40" height="40" as="geometry">
            <mxRectangle width="40" height="40" as="alternateBounds" />
          </mxGeometry>
        </mxCell>
        <mxCell id="4BjtTrV5bBAlcVHx1rWV-38" value="" style="shape=tableRow;horizontal=0;startSize=0;swimlaneHead=0;swimlaneBody=0;strokeColor=inherit;top=0;left=0;bottom=0;right=0;collapsible=0;dropTarget=0;fillColor=none;points=[[0,0.5],[1,0.5]];portConstraint=eastwest;fontFamily=Times New Roman;" vertex="1" parent="4BjtTrV5bBAlcVHx1rWV-22">
          <mxGeometry y="120" width="280" height="40" as="geometry" />
        </mxCell>
        <mxCell id="4BjtTrV5bBAlcVHx1rWV-86" value="13" style="shape=partialRectangle;html=1;whiteSpace=wrap;connectable=0;strokeColor=inherit;overflow=hidden;fillColor=none;top=0;left=0;bottom=0;right=0;pointerEvents=1;fontFamily=Times New Roman;" vertex="1" parent="4BjtTrV5bBAlcVHx1rWV-38">
          <mxGeometry width="40" height="40" as="geometry">
            <mxRectangle width="40" height="40" as="alternateBounds" />
          </mxGeometry>
        </mxCell>
        <mxCell id="4BjtTrV5bBAlcVHx1rWV-90" value="14" style="shape=partialRectangle;html=1;whiteSpace=wrap;connectable=0;strokeColor=inherit;overflow=hidden;fillColor=none;top=0;left=0;bottom=0;right=0;pointerEvents=1;fontFamily=Times New Roman;" vertex="1" parent="4BjtTrV5bBAlcVHx1rWV-38">
          <mxGeometry x="40" width="40" height="40" as="geometry">
            <mxRectangle width="40" height="40" as="alternateBounds" />
          </mxGeometry>
        </mxCell>
        <mxCell id="4BjtTrV5bBAlcVHx1rWV-94" value="15" style="shape=partialRectangle;html=1;whiteSpace=wrap;connectable=0;strokeColor=inherit;overflow=hidden;fillColor=none;top=0;left=0;bottom=0;right=0;pointerEvents=1;fontFamily=Times New Roman;" vertex="1" parent="4BjtTrV5bBAlcVHx1rWV-38">
          <mxGeometry x="80" width="40" height="40" as="geometry">
            <mxRectangle width="40" height="40" as="alternateBounds" />
          </mxGeometry>
        </mxCell>
        <mxCell id="4BjtTrV5bBAlcVHx1rWV-39" value="16" style="shape=partialRectangle;html=1;whiteSpace=wrap;connectable=0;strokeColor=inherit;overflow=hidden;fillColor=none;top=0;left=0;bottom=0;right=0;pointerEvents=1;fontFamily=Times New Roman;" vertex="1" parent="4BjtTrV5bBAlcVHx1rWV-38">
          <mxGeometry x="120" width="40" height="40" as="geometry">
            <mxRectangle width="40" height="40" as="alternateBounds" />
          </mxGeometry>
        </mxCell>
        <mxCell id="4BjtTrV5bBAlcVHx1rWV-40" value="" style="shape=partialRectangle;html=1;whiteSpace=wrap;connectable=0;strokeColor=inherit;overflow=hidden;fillColor=none;top=0;left=0;bottom=0;right=0;pointerEvents=1;fontFamily=Times New Roman;" vertex="1" parent="4BjtTrV5bBAlcVHx1rWV-38">
          <mxGeometry x="160" width="40" height="40" as="geometry">
            <mxRectangle width="40" height="40" as="alternateBounds" />
          </mxGeometry>
        </mxCell>
        <mxCell id="4BjtTrV5bBAlcVHx1rWV-41" value="" style="shape=partialRectangle;html=1;whiteSpace=wrap;connectable=0;strokeColor=inherit;overflow=hidden;fillColor=none;top=0;left=0;bottom=0;right=0;pointerEvents=1;fontFamily=Times New Roman;" vertex="1" parent="4BjtTrV5bBAlcVHx1rWV-38">
          <mxGeometry x="200" width="40" height="40" as="geometry">
            <mxRectangle width="40" height="40" as="alternateBounds" />
          </mxGeometry>
        </mxCell>
        <mxCell id="4BjtTrV5bBAlcVHx1rWV-42" value="" style="shape=partialRectangle;html=1;whiteSpace=wrap;connectable=0;strokeColor=inherit;overflow=hidden;fillColor=none;top=0;left=0;bottom=0;right=0;pointerEvents=1;fontFamily=Times New Roman;" vertex="1" parent="4BjtTrV5bBAlcVHx1rWV-38">
          <mxGeometry x="240" width="40" height="40" as="geometry">
            <mxRectangle width="40" height="40" as="alternateBounds" />
          </mxGeometry>
        </mxCell>
        <mxCell id="4BjtTrV5bBAlcVHx1rWV-95" value="" style="shape=table;startSize=0;container=1;collapsible=0;childLayout=tableLayout;dashed=1;fontFamily=Times New Roman;" vertex="1" parent="1">
          <mxGeometry x="320" y="40" width="160" height="280" as="geometry" />
        </mxCell>
        <mxCell id="4BjtTrV5bBAlcVHx1rWV-116" style="shape=tableRow;horizontal=0;startSize=0;swimlaneHead=0;swimlaneBody=0;strokeColor=inherit;top=0;left=0;bottom=0;right=0;collapsible=0;dropTarget=0;fillColor=none;points=[[0,0.5],[1,0.5]];portConstraint=eastwest;fontFamily=Times New Roman;" vertex="1" parent="4BjtTrV5bBAlcVHx1rWV-95">
          <mxGeometry width="160" height="40" as="geometry" />
        </mxCell>
        <mxCell id="4BjtTrV5bBAlcVHx1rWV-117" style="shape=partialRectangle;html=1;whiteSpace=wrap;connectable=0;strokeColor=inherit;overflow=hidden;fillColor=none;top=0;left=0;bottom=0;right=0;pointerEvents=1;fontFamily=Times New Roman;" vertex="1" parent="4BjtTrV5bBAlcVHx1rWV-116">
          <mxGeometry width="40" height="40" as="geometry">
            <mxRectangle width="40" height="40" as="alternateBounds" />
          </mxGeometry>
        </mxCell>
        <mxCell id="4BjtTrV5bBAlcVHx1rWV-118" style="shape=partialRectangle;html=1;whiteSpace=wrap;connectable=0;strokeColor=inherit;overflow=hidden;fillColor=none;top=0;left=0;bottom=0;right=0;pointerEvents=1;fontFamily=Times New Roman;" vertex="1" parent="4BjtTrV5bBAlcVHx1rWV-116">
          <mxGeometry x="40" width="40" height="40" as="geometry">
            <mxRectangle width="40" height="40" as="alternateBounds" />
          </mxGeometry>
        </mxCell>
        <mxCell id="4BjtTrV5bBAlcVHx1rWV-119" style="shape=partialRectangle;html=1;whiteSpace=wrap;connectable=0;strokeColor=inherit;overflow=hidden;fillColor=none;top=0;left=0;bottom=0;right=0;pointerEvents=1;fontFamily=Times New Roman;" vertex="1" parent="4BjtTrV5bBAlcVHx1rWV-116">
          <mxGeometry x="80" width="40" height="40" as="geometry">
            <mxRectangle width="40" height="40" as="alternateBounds" />
          </mxGeometry>
        </mxCell>
        <mxCell id="4BjtTrV5bBAlcVHx1rWV-120" value="4" style="shape=partialRectangle;html=1;whiteSpace=wrap;connectable=0;strokeColor=inherit;overflow=hidden;fillColor=none;top=0;left=0;bottom=0;right=0;pointerEvents=1;fontFamily=Times New Roman;" vertex="1" parent="4BjtTrV5bBAlcVHx1rWV-116">
          <mxGeometry x="120" width="40" height="40" as="geometry">
            <mxRectangle width="40" height="40" as="alternateBounds" />
          </mxGeometry>
        </mxCell>
        <mxCell id="4BjtTrV5bBAlcVHx1rWV-121" style="shape=tableRow;horizontal=0;startSize=0;swimlaneHead=0;swimlaneBody=0;strokeColor=inherit;top=0;left=0;bottom=0;right=0;collapsible=0;dropTarget=0;fillColor=none;points=[[0,0.5],[1,0.5]];portConstraint=eastwest;fontFamily=Times New Roman;" vertex="1" parent="4BjtTrV5bBAlcVHx1rWV-95">
          <mxGeometry y="40" width="160" height="40" as="geometry" />
        </mxCell>
        <mxCell id="4BjtTrV5bBAlcVHx1rWV-122" style="shape=partialRectangle;html=1;whiteSpace=wrap;connectable=0;strokeColor=inherit;overflow=hidden;fillColor=none;top=0;left=0;bottom=0;right=0;pointerEvents=1;fontFamily=Times New Roman;" vertex="1" parent="4BjtTrV5bBAlcVHx1rWV-121">
          <mxGeometry width="40" height="40" as="geometry">
            <mxRectangle width="40" height="40" as="alternateBounds" />
          </mxGeometry>
        </mxCell>
        <mxCell id="4BjtTrV5bBAlcVHx1rWV-123" style="shape=partialRectangle;html=1;whiteSpace=wrap;connectable=0;strokeColor=inherit;overflow=hidden;fillColor=none;top=0;left=0;bottom=0;right=0;pointerEvents=1;fontFamily=Times New Roman;" vertex="1" parent="4BjtTrV5bBAlcVHx1rWV-121">
          <mxGeometry x="40" width="40" height="40" as="geometry">
            <mxRectangle width="40" height="40" as="alternateBounds" />
          </mxGeometry>
        </mxCell>
        <mxCell id="4BjtTrV5bBAlcVHx1rWV-124" value="3" style="shape=partialRectangle;html=1;whiteSpace=wrap;connectable=0;strokeColor=inherit;overflow=hidden;fillColor=none;top=0;left=0;bottom=0;right=0;pointerEvents=1;fontFamily=Times New Roman;" vertex="1" parent="4BjtTrV5bBAlcVHx1rWV-121">
          <mxGeometry x="80" width="40" height="40" as="geometry">
            <mxRectangle width="40" height="40" as="alternateBounds" />
          </mxGeometry>
        </mxCell>
        <mxCell id="4BjtTrV5bBAlcVHx1rWV-125" value="8" style="shape=partialRectangle;html=1;whiteSpace=wrap;connectable=0;strokeColor=inherit;overflow=hidden;fillColor=none;top=0;left=0;bottom=0;right=0;pointerEvents=1;fontFamily=Times New Roman;" vertex="1" parent="4BjtTrV5bBAlcVHx1rWV-121">
          <mxGeometry x="120" width="40" height="40" as="geometry">
            <mxRectangle width="40" height="40" as="alternateBounds" />
          </mxGeometry>
        </mxCell>
        <mxCell id="4BjtTrV5bBAlcVHx1rWV-126" style="shape=tableRow;horizontal=0;startSize=0;swimlaneHead=0;swimlaneBody=0;strokeColor=inherit;top=0;left=0;bottom=0;right=0;collapsible=0;dropTarget=0;fillColor=none;points=[[0,0.5],[1,0.5]];portConstraint=eastwest;fontFamily=Times New Roman;" vertex="1" parent="4BjtTrV5bBAlcVHx1rWV-95">
          <mxGeometry y="80" width="160" height="40" as="geometry" />
        </mxCell>
        <mxCell id="4BjtTrV5bBAlcVHx1rWV-127" style="shape=partialRectangle;html=1;whiteSpace=wrap;connectable=0;strokeColor=inherit;overflow=hidden;fillColor=none;top=0;left=0;bottom=0;right=0;pointerEvents=1;fontFamily=Times New Roman;" vertex="1" parent="4BjtTrV5bBAlcVHx1rWV-126">
          <mxGeometry width="40" height="40" as="geometry">
            <mxRectangle width="40" height="40" as="alternateBounds" />
          </mxGeometry>
        </mxCell>
        <mxCell id="4BjtTrV5bBAlcVHx1rWV-128" value="2" style="shape=partialRectangle;html=1;whiteSpace=wrap;connectable=0;strokeColor=inherit;overflow=hidden;fillColor=none;top=0;left=0;bottom=0;right=0;pointerEvents=1;fontFamily=Times New Roman;" vertex="1" parent="4BjtTrV5bBAlcVHx1rWV-126">
          <mxGeometry x="40" width="40" height="40" as="geometry">
            <mxRectangle width="40" height="40" as="alternateBounds" />
          </mxGeometry>
        </mxCell>
        <mxCell id="4BjtTrV5bBAlcVHx1rWV-129" value="7" style="shape=partialRectangle;html=1;whiteSpace=wrap;connectable=0;strokeColor=inherit;overflow=hidden;fillColor=none;top=0;left=0;bottom=0;right=0;pointerEvents=1;fontFamily=Times New Roman;" vertex="1" parent="4BjtTrV5bBAlcVHx1rWV-126">
          <mxGeometry x="80" width="40" height="40" as="geometry">
            <mxRectangle width="40" height="40" as="alternateBounds" />
          </mxGeometry>
        </mxCell>
        <mxCell id="4BjtTrV5bBAlcVHx1rWV-130" value="12" style="shape=partialRectangle;html=1;whiteSpace=wrap;connectable=0;strokeColor=inherit;overflow=hidden;fillColor=none;top=0;left=0;bottom=0;right=0;pointerEvents=1;fontFamily=Times New Roman;" vertex="1" parent="4BjtTrV5bBAlcVHx1rWV-126">
          <mxGeometry x="120" width="40" height="40" as="geometry">
            <mxRectangle width="40" height="40" as="alternateBounds" />
          </mxGeometry>
        </mxCell>
        <mxCell id="4BjtTrV5bBAlcVHx1rWV-96" value="" style="shape=tableRow;horizontal=0;startSize=0;swimlaneHead=0;swimlaneBody=0;strokeColor=inherit;top=0;left=0;bottom=0;right=0;collapsible=0;dropTarget=0;fillColor=none;points=[[0,0.5],[1,0.5]];portConstraint=eastwest;fontFamily=Times New Roman;" vertex="1" parent="4BjtTrV5bBAlcVHx1rWV-95">
          <mxGeometry y="120" width="160" height="40" as="geometry" />
        </mxCell>
        <mxCell id="4BjtTrV5bBAlcVHx1rWV-97" value="1" style="shape=partialRectangle;html=1;whiteSpace=wrap;connectable=0;strokeColor=inherit;overflow=hidden;fillColor=none;top=0;left=0;bottom=0;right=0;pointerEvents=1;fontFamily=Times New Roman;" vertex="1" parent="4BjtTrV5bBAlcVHx1rWV-96">
          <mxGeometry width="40" height="40" as="geometry">
            <mxRectangle width="40" height="40" as="alternateBounds" />
          </mxGeometry>
        </mxCell>
        <mxCell id="4BjtTrV5bBAlcVHx1rWV-98" value="6" style="shape=partialRectangle;html=1;whiteSpace=wrap;connectable=0;strokeColor=inherit;overflow=hidden;fillColor=none;top=0;left=0;bottom=0;right=0;pointerEvents=1;fontFamily=Times New Roman;" vertex="1" parent="4BjtTrV5bBAlcVHx1rWV-96">
          <mxGeometry x="40" width="40" height="40" as="geometry">
            <mxRectangle width="40" height="40" as="alternateBounds" />
          </mxGeometry>
        </mxCell>
        <mxCell id="4BjtTrV5bBAlcVHx1rWV-99" value="11" style="shape=partialRectangle;html=1;whiteSpace=wrap;connectable=0;strokeColor=inherit;overflow=hidden;fillColor=none;top=0;left=0;bottom=0;right=0;pointerEvents=1;fontFamily=Times New Roman;" vertex="1" parent="4BjtTrV5bBAlcVHx1rWV-96">
          <mxGeometry x="80" width="40" height="40" as="geometry">
            <mxRectangle width="40" height="40" as="alternateBounds" />
          </mxGeometry>
        </mxCell>
        <mxCell id="4BjtTrV5bBAlcVHx1rWV-100" value="16" style="shape=partialRectangle;html=1;whiteSpace=wrap;connectable=0;strokeColor=inherit;overflow=hidden;fillColor=none;top=0;left=0;bottom=0;right=0;pointerEvents=1;fontFamily=Times New Roman;" vertex="1" parent="4BjtTrV5bBAlcVHx1rWV-96">
          <mxGeometry x="120" width="40" height="40" as="geometry">
            <mxRectangle width="40" height="40" as="alternateBounds" />
          </mxGeometry>
        </mxCell>
        <mxCell id="4BjtTrV5bBAlcVHx1rWV-101" value="" style="shape=tableRow;horizontal=0;startSize=0;swimlaneHead=0;swimlaneBody=0;strokeColor=inherit;top=0;left=0;bottom=0;right=0;collapsible=0;dropTarget=0;fillColor=none;points=[[0,0.5],[1,0.5]];portConstraint=eastwest;fontFamily=Times New Roman;" vertex="1" parent="4BjtTrV5bBAlcVHx1rWV-95">
          <mxGeometry y="160" width="160" height="40" as="geometry" />
        </mxCell>
        <mxCell id="4BjtTrV5bBAlcVHx1rWV-102" value="5" style="shape=partialRectangle;html=1;whiteSpace=wrap;connectable=0;strokeColor=inherit;overflow=hidden;fillColor=none;top=0;left=0;bottom=0;right=0;pointerEvents=1;fontFamily=Times New Roman;" vertex="1" parent="4BjtTrV5bBAlcVHx1rWV-101">
          <mxGeometry width="40" height="40" as="geometry">
            <mxRectangle width="40" height="40" as="alternateBounds" />
          </mxGeometry>
        </mxCell>
        <mxCell id="4BjtTrV5bBAlcVHx1rWV-103" value="10" style="shape=partialRectangle;html=1;whiteSpace=wrap;connectable=0;strokeColor=inherit;overflow=hidden;fillColor=none;top=0;left=0;bottom=0;right=0;pointerEvents=1;fontFamily=Times New Roman;" vertex="1" parent="4BjtTrV5bBAlcVHx1rWV-101">
          <mxGeometry x="40" width="40" height="40" as="geometry">
            <mxRectangle width="40" height="40" as="alternateBounds" />
          </mxGeometry>
        </mxCell>
        <mxCell id="4BjtTrV5bBAlcVHx1rWV-104" value="15" style="shape=partialRectangle;html=1;whiteSpace=wrap;connectable=0;strokeColor=inherit;overflow=hidden;fillColor=none;top=0;left=0;bottom=0;right=0;pointerEvents=1;fontFamily=Times New Roman;" vertex="1" parent="4BjtTrV5bBAlcVHx1rWV-101">
          <mxGeometry x="80" width="40" height="40" as="geometry">
            <mxRectangle width="40" height="40" as="alternateBounds" />
          </mxGeometry>
        </mxCell>
        <mxCell id="4BjtTrV5bBAlcVHx1rWV-105" value="" style="shape=partialRectangle;html=1;whiteSpace=wrap;connectable=0;strokeColor=inherit;overflow=hidden;fillColor=none;top=0;left=0;bottom=0;right=0;pointerEvents=1;fontFamily=Times New Roman;" vertex="1" parent="4BjtTrV5bBAlcVHx1rWV-101">
          <mxGeometry x="120" width="40" height="40" as="geometry">
            <mxRectangle width="40" height="40" as="alternateBounds" />
          </mxGeometry>
        </mxCell>
        <mxCell id="4BjtTrV5bBAlcVHx1rWV-106" value="" style="shape=tableRow;horizontal=0;startSize=0;swimlaneHead=0;swimlaneBody=0;strokeColor=inherit;top=0;left=0;bottom=0;right=0;collapsible=0;dropTarget=0;fillColor=none;points=[[0,0.5],[1,0.5]];portConstraint=eastwest;fontFamily=Times New Roman;" vertex="1" parent="4BjtTrV5bBAlcVHx1rWV-95">
          <mxGeometry y="200" width="160" height="40" as="geometry" />
        </mxCell>
        <mxCell id="4BjtTrV5bBAlcVHx1rWV-107" value="9" style="shape=partialRectangle;html=1;whiteSpace=wrap;connectable=0;strokeColor=inherit;overflow=hidden;fillColor=none;top=0;left=0;bottom=0;right=0;pointerEvents=1;fontFamily=Times New Roman;" vertex="1" parent="4BjtTrV5bBAlcVHx1rWV-106">
          <mxGeometry width="40" height="40" as="geometry">
            <mxRectangle width="40" height="40" as="alternateBounds" />
          </mxGeometry>
        </mxCell>
        <mxCell id="4BjtTrV5bBAlcVHx1rWV-108" value="14" style="shape=partialRectangle;html=1;whiteSpace=wrap;connectable=0;strokeColor=inherit;overflow=hidden;fillColor=none;top=0;left=0;bottom=0;right=0;pointerEvents=1;fontFamily=Times New Roman;" vertex="1" parent="4BjtTrV5bBAlcVHx1rWV-106">
          <mxGeometry x="40" width="40" height="40" as="geometry">
            <mxRectangle width="40" height="40" as="alternateBounds" />
          </mxGeometry>
        </mxCell>
        <mxCell id="4BjtTrV5bBAlcVHx1rWV-109" value="" style="shape=partialRectangle;html=1;whiteSpace=wrap;connectable=0;strokeColor=inherit;overflow=hidden;fillColor=none;top=0;left=0;bottom=0;right=0;pointerEvents=1;fontFamily=Times New Roman;" vertex="1" parent="4BjtTrV5bBAlcVHx1rWV-106">
          <mxGeometry x="80" width="40" height="40" as="geometry">
            <mxRectangle width="40" height="40" as="alternateBounds" />
          </mxGeometry>
        </mxCell>
        <mxCell id="4BjtTrV5bBAlcVHx1rWV-110" value="" style="shape=partialRectangle;html=1;whiteSpace=wrap;connectable=0;strokeColor=inherit;overflow=hidden;fillColor=none;top=0;left=0;bottom=0;right=0;pointerEvents=1;fontFamily=Times New Roman;" vertex="1" parent="4BjtTrV5bBAlcVHx1rWV-106">
          <mxGeometry x="120" width="40" height="40" as="geometry">
            <mxRectangle width="40" height="40" as="alternateBounds" />
          </mxGeometry>
        </mxCell>
        <mxCell id="4BjtTrV5bBAlcVHx1rWV-111" value="" style="shape=tableRow;horizontal=0;startSize=0;swimlaneHead=0;swimlaneBody=0;strokeColor=inherit;top=0;left=0;bottom=0;right=0;collapsible=0;dropTarget=0;fillColor=none;points=[[0,0.5],[1,0.5]];portConstraint=eastwest;fontFamily=Times New Roman;" vertex="1" parent="4BjtTrV5bBAlcVHx1rWV-95">
          <mxGeometry y="240" width="160" height="40" as="geometry" />
        </mxCell>
        <mxCell id="4BjtTrV5bBAlcVHx1rWV-112" value="13" style="shape=partialRectangle;html=1;whiteSpace=wrap;connectable=0;strokeColor=inherit;overflow=hidden;fillColor=none;top=0;left=0;bottom=0;right=0;pointerEvents=1;fontFamily=Times New Roman;" vertex="1" parent="4BjtTrV5bBAlcVHx1rWV-111">
          <mxGeometry width="40" height="40" as="geometry">
            <mxRectangle width="40" height="40" as="alternateBounds" />
          </mxGeometry>
        </mxCell>
        <mxCell id="4BjtTrV5bBAlcVHx1rWV-113" value="" style="shape=partialRectangle;html=1;whiteSpace=wrap;connectable=0;strokeColor=inherit;overflow=hidden;fillColor=none;top=0;left=0;bottom=0;right=0;pointerEvents=1;fontFamily=Times New Roman;" vertex="1" parent="4BjtTrV5bBAlcVHx1rWV-111">
          <mxGeometry x="40" width="40" height="40" as="geometry">
            <mxRectangle width="40" height="40" as="alternateBounds" />
          </mxGeometry>
        </mxCell>
        <mxCell id="4BjtTrV5bBAlcVHx1rWV-114" value="" style="shape=partialRectangle;html=1;whiteSpace=wrap;connectable=0;strokeColor=inherit;overflow=hidden;fillColor=none;top=0;left=0;bottom=0;right=0;pointerEvents=1;fontFamily=Times New Roman;" vertex="1" parent="4BjtTrV5bBAlcVHx1rWV-111">
          <mxGeometry x="80" width="40" height="40" as="geometry">
            <mxRectangle width="40" height="40" as="alternateBounds" />
          </mxGeometry>
        </mxCell>
        <mxCell id="4BjtTrV5bBAlcVHx1rWV-115" value="" style="shape=partialRectangle;html=1;whiteSpace=wrap;connectable=0;strokeColor=inherit;overflow=hidden;fillColor=none;top=0;left=0;bottom=0;right=0;pointerEvents=1;fontFamily=Times New Roman;" vertex="1" parent="4BjtTrV5bBAlcVHx1rWV-111">
          <mxGeometry x="120" width="40" height="40" as="geometry">
            <mxRectangle width="40" height="40" as="alternateBounds" />
          </mxGeometry>
        </mxCell>
        <mxCell id="4BjtTrV5bBAlcVHx1rWV-132" value="" style="endArrow=classic;html=1;rounded=0;" edge="1" parent="1">
          <mxGeometry width="50" height="50" relative="1" as="geometry">
            <mxPoint x="500" y="70" as="sourcePoint" />
            <mxPoint x="500" y="320" as="targetPoint" />
          </mxGeometry>
        </mxCell>
        <mxCell id="4BjtTrV5bBAlcVHx1rWV-133" value="flow over time&lt;br&gt;on i axis" style="edgeLabel;html=1;align=center;verticalAlign=middle;resizable=0;points=[];fontFamily=Times New Roman;" vertex="1" connectable="0" parent="4BjtTrV5bBAlcVHx1rWV-132">
          <mxGeometry x="-0.2263" y="1" relative="1" as="geometry">
            <mxPoint x="49" y="13" as="offset" />
          </mxGeometry>
        </mxCell>
        <mxCell id="4BjtTrV5bBAlcVHx1rWV-134" value="" style="endArrow=classic;html=1;rounded=0;" edge="1" parent="1">
          <mxGeometry width="50" height="50" relative="1" as="geometry">
            <mxPoint x="10" y="538" as="sourcePoint" />
            <mxPoint x="280" y="538" as="targetPoint" />
          </mxGeometry>
        </mxCell>
        <mxCell id="4BjtTrV5bBAlcVHx1rWV-135" value="flow over time&lt;br&gt;on j axis" style="edgeLabel;html=1;align=center;verticalAlign=middle;resizable=0;points=[];fontFamily=Times New Roman;" vertex="1" connectable="0" parent="4BjtTrV5bBAlcVHx1rWV-134">
          <mxGeometry x="-0.2263" y="1" relative="1" as="geometry">
            <mxPoint x="46" y="23" as="offset" />
          </mxGeometry>
        </mxCell>
        <mxCell id="4BjtTrV5bBAlcVHx1rWV-136" value="" style="endArrow=classic;html=1;rounded=0;" edge="1" parent="1">
          <mxGeometry width="50" height="50" relative="1" as="geometry">
            <mxPoint x="320" y="360" as="sourcePoint" />
            <mxPoint x="550" y="360" as="targetPoint" />
          </mxGeometry>
        </mxCell>
        <mxCell id="4BjtTrV5bBAlcVHx1rWV-137" value="" style="endArrow=classic;html=1;rounded=0;" edge="1" parent="1">
          <mxGeometry width="50" height="50" relative="1" as="geometry">
            <mxPoint x="320" y="360" as="sourcePoint" />
            <mxPoint x="320" y="580" as="targetPoint" />
          </mxGeometry>
        </mxCell>
        <mxCell id="4BjtTrV5bBAlcVHx1rWV-138" value="&lt;font face=&quot;Times New Roman&quot; style=&quot;font-size: 20px;&quot;&gt;j&lt;/font&gt;" style="text;html=1;strokeColor=none;fillColor=none;align=center;verticalAlign=middle;whiteSpace=wrap;rounded=0;fontSize=20;" vertex="1" parent="1">
          <mxGeometry x="540" y="340" width="60" height="30" as="geometry" />
        </mxCell>
        <mxCell id="4BjtTrV5bBAlcVHx1rWV-139" value="&lt;font face=&quot;Times New Roman&quot; style=&quot;font-size: 20px;&quot;&gt;i&lt;/font&gt;" style="text;html=1;strokeColor=none;fillColor=none;align=center;verticalAlign=middle;whiteSpace=wrap;rounded=0;fontSize=20;" vertex="1" parent="1">
          <mxGeometry x="290" y="580" width="60" height="30" as="geometry" />
        </mxCell>
        <mxCell id="4BjtTrV5bBAlcVHx1rWV-161" value="" style="shape=table;startSize=0;container=1;collapsible=0;childLayout=tableLayout;fontFamily=Times New Roman;fillColor=#d5e8d4;strokeColor=#82b366;" vertex="1" parent="1">
          <mxGeometry x="320" y="-200" width="160" height="160" as="geometry" />
        </mxCell>
        <mxCell id="4BjtTrV5bBAlcVHx1rWV-162" value="" style="shape=tableRow;horizontal=0;startSize=0;swimlaneHead=0;swimlaneBody=0;strokeColor=inherit;top=0;left=0;bottom=0;right=0;collapsible=0;dropTarget=0;fillColor=none;points=[[0,0.5],[1,0.5]];portConstraint=eastwest;fontFamily=Times New Roman;" vertex="1" parent="4BjtTrV5bBAlcVHx1rWV-161">
          <mxGeometry width="160" height="40" as="geometry" />
        </mxCell>
        <mxCell id="4BjtTrV5bBAlcVHx1rWV-163" value="1" style="shape=partialRectangle;html=1;whiteSpace=wrap;connectable=0;strokeColor=inherit;overflow=hidden;fillColor=none;top=0;left=0;bottom=0;right=0;pointerEvents=1;fontFamily=Times New Roman;" vertex="1" parent="4BjtTrV5bBAlcVHx1rWV-162">
          <mxGeometry width="40" height="40" as="geometry">
            <mxRectangle width="40" height="40" as="alternateBounds" />
          </mxGeometry>
        </mxCell>
        <mxCell id="4BjtTrV5bBAlcVHx1rWV-164" value="2" style="shape=partialRectangle;html=1;whiteSpace=wrap;connectable=0;strokeColor=inherit;overflow=hidden;fillColor=none;top=0;left=0;bottom=0;right=0;pointerEvents=1;fontFamily=Times New Roman;" vertex="1" parent="4BjtTrV5bBAlcVHx1rWV-162">
          <mxGeometry x="40" width="40" height="40" as="geometry">
            <mxRectangle width="40" height="40" as="alternateBounds" />
          </mxGeometry>
        </mxCell>
        <mxCell id="4BjtTrV5bBAlcVHx1rWV-165" value="3" style="shape=partialRectangle;html=1;whiteSpace=wrap;connectable=0;strokeColor=inherit;overflow=hidden;fillColor=none;top=0;left=0;bottom=0;right=0;pointerEvents=1;fontFamily=Times New Roman;" vertex="1" parent="4BjtTrV5bBAlcVHx1rWV-162">
          <mxGeometry x="80" width="40" height="40" as="geometry">
            <mxRectangle width="40" height="40" as="alternateBounds" />
          </mxGeometry>
        </mxCell>
        <mxCell id="4BjtTrV5bBAlcVHx1rWV-166" value="4" style="shape=partialRectangle;html=1;whiteSpace=wrap;connectable=0;strokeColor=inherit;overflow=hidden;fillColor=none;top=0;left=0;bottom=0;right=0;pointerEvents=1;fontFamily=Times New Roman;" vertex="1" parent="4BjtTrV5bBAlcVHx1rWV-162">
          <mxGeometry x="120" width="40" height="40" as="geometry">
            <mxRectangle width="40" height="40" as="alternateBounds" />
          </mxGeometry>
        </mxCell>
        <mxCell id="4BjtTrV5bBAlcVHx1rWV-167" value="" style="shape=tableRow;horizontal=0;startSize=0;swimlaneHead=0;swimlaneBody=0;strokeColor=inherit;top=0;left=0;bottom=0;right=0;collapsible=0;dropTarget=0;fillColor=none;points=[[0,0.5],[1,0.5]];portConstraint=eastwest;fontFamily=Times New Roman;" vertex="1" parent="4BjtTrV5bBAlcVHx1rWV-161">
          <mxGeometry y="40" width="160" height="40" as="geometry" />
        </mxCell>
        <mxCell id="4BjtTrV5bBAlcVHx1rWV-168" value="5" style="shape=partialRectangle;html=1;whiteSpace=wrap;connectable=0;strokeColor=inherit;overflow=hidden;fillColor=none;top=0;left=0;bottom=0;right=0;pointerEvents=1;fontFamily=Times New Roman;" vertex="1" parent="4BjtTrV5bBAlcVHx1rWV-167">
          <mxGeometry width="40" height="40" as="geometry">
            <mxRectangle width="40" height="40" as="alternateBounds" />
          </mxGeometry>
        </mxCell>
        <mxCell id="4BjtTrV5bBAlcVHx1rWV-169" value="6" style="shape=partialRectangle;html=1;whiteSpace=wrap;connectable=0;strokeColor=inherit;overflow=hidden;fillColor=none;top=0;left=0;bottom=0;right=0;pointerEvents=1;fontFamily=Times New Roman;" vertex="1" parent="4BjtTrV5bBAlcVHx1rWV-167">
          <mxGeometry x="40" width="40" height="40" as="geometry">
            <mxRectangle width="40" height="40" as="alternateBounds" />
          </mxGeometry>
        </mxCell>
        <mxCell id="4BjtTrV5bBAlcVHx1rWV-170" value="7" style="shape=partialRectangle;html=1;whiteSpace=wrap;connectable=0;strokeColor=inherit;overflow=hidden;fillColor=none;top=0;left=0;bottom=0;right=0;pointerEvents=1;fontFamily=Times New Roman;" vertex="1" parent="4BjtTrV5bBAlcVHx1rWV-167">
          <mxGeometry x="80" width="40" height="40" as="geometry">
            <mxRectangle width="40" height="40" as="alternateBounds" />
          </mxGeometry>
        </mxCell>
        <mxCell id="4BjtTrV5bBAlcVHx1rWV-171" value="8" style="shape=partialRectangle;html=1;whiteSpace=wrap;connectable=0;strokeColor=inherit;overflow=hidden;fillColor=none;top=0;left=0;bottom=0;right=0;pointerEvents=1;fontFamily=Times New Roman;" vertex="1" parent="4BjtTrV5bBAlcVHx1rWV-167">
          <mxGeometry x="120" width="40" height="40" as="geometry">
            <mxRectangle width="40" height="40" as="alternateBounds" />
          </mxGeometry>
        </mxCell>
        <mxCell id="4BjtTrV5bBAlcVHx1rWV-172" value="" style="shape=tableRow;horizontal=0;startSize=0;swimlaneHead=0;swimlaneBody=0;strokeColor=inherit;top=0;left=0;bottom=0;right=0;collapsible=0;dropTarget=0;fillColor=none;points=[[0,0.5],[1,0.5]];portConstraint=eastwest;fontFamily=Times New Roman;" vertex="1" parent="4BjtTrV5bBAlcVHx1rWV-161">
          <mxGeometry y="80" width="160" height="40" as="geometry" />
        </mxCell>
        <mxCell id="4BjtTrV5bBAlcVHx1rWV-173" value="9" style="shape=partialRectangle;html=1;whiteSpace=wrap;connectable=0;strokeColor=inherit;overflow=hidden;fillColor=none;top=0;left=0;bottom=0;right=0;pointerEvents=1;fontFamily=Times New Roman;" vertex="1" parent="4BjtTrV5bBAlcVHx1rWV-172">
          <mxGeometry width="40" height="40" as="geometry">
            <mxRectangle width="40" height="40" as="alternateBounds" />
          </mxGeometry>
        </mxCell>
        <mxCell id="4BjtTrV5bBAlcVHx1rWV-174" value="10" style="shape=partialRectangle;html=1;whiteSpace=wrap;connectable=0;strokeColor=inherit;overflow=hidden;fillColor=none;top=0;left=0;bottom=0;right=0;pointerEvents=1;fontFamily=Times New Roman;" vertex="1" parent="4BjtTrV5bBAlcVHx1rWV-172">
          <mxGeometry x="40" width="40" height="40" as="geometry">
            <mxRectangle width="40" height="40" as="alternateBounds" />
          </mxGeometry>
        </mxCell>
        <mxCell id="4BjtTrV5bBAlcVHx1rWV-175" value="11" style="shape=partialRectangle;html=1;whiteSpace=wrap;connectable=0;strokeColor=inherit;overflow=hidden;fillColor=none;top=0;left=0;bottom=0;right=0;pointerEvents=1;fontFamily=Times New Roman;" vertex="1" parent="4BjtTrV5bBAlcVHx1rWV-172">
          <mxGeometry x="80" width="40" height="40" as="geometry">
            <mxRectangle width="40" height="40" as="alternateBounds" />
          </mxGeometry>
        </mxCell>
        <mxCell id="4BjtTrV5bBAlcVHx1rWV-176" value="12" style="shape=partialRectangle;html=1;whiteSpace=wrap;connectable=0;strokeColor=inherit;overflow=hidden;fillColor=none;top=0;left=0;bottom=0;right=0;pointerEvents=1;fontFamily=Times New Roman;" vertex="1" parent="4BjtTrV5bBAlcVHx1rWV-172">
          <mxGeometry x="120" width="40" height="40" as="geometry">
            <mxRectangle width="40" height="40" as="alternateBounds" />
          </mxGeometry>
        </mxCell>
        <mxCell id="4BjtTrV5bBAlcVHx1rWV-177" value="" style="shape=tableRow;horizontal=0;startSize=0;swimlaneHead=0;swimlaneBody=0;strokeColor=inherit;top=0;left=0;bottom=0;right=0;collapsible=0;dropTarget=0;fillColor=none;points=[[0,0.5],[1,0.5]];portConstraint=eastwest;fontFamily=Times New Roman;" vertex="1" parent="4BjtTrV5bBAlcVHx1rWV-161">
          <mxGeometry y="120" width="160" height="40" as="geometry" />
        </mxCell>
        <mxCell id="4BjtTrV5bBAlcVHx1rWV-178" value="13" style="shape=partialRectangle;html=1;whiteSpace=wrap;connectable=0;strokeColor=inherit;overflow=hidden;fillColor=none;top=0;left=0;bottom=0;right=0;pointerEvents=1;fontFamily=Times New Roman;" vertex="1" parent="4BjtTrV5bBAlcVHx1rWV-177">
          <mxGeometry width="40" height="40" as="geometry">
            <mxRectangle width="40" height="40" as="alternateBounds" />
          </mxGeometry>
        </mxCell>
        <mxCell id="4BjtTrV5bBAlcVHx1rWV-179" value="14" style="shape=partialRectangle;html=1;whiteSpace=wrap;connectable=0;strokeColor=inherit;overflow=hidden;fillColor=none;top=0;left=0;bottom=0;right=0;pointerEvents=1;fontFamily=Times New Roman;" vertex="1" parent="4BjtTrV5bBAlcVHx1rWV-177">
          <mxGeometry x="40" width="40" height="40" as="geometry">
            <mxRectangle width="40" height="40" as="alternateBounds" />
          </mxGeometry>
        </mxCell>
        <mxCell id="4BjtTrV5bBAlcVHx1rWV-180" value="15" style="shape=partialRectangle;html=1;whiteSpace=wrap;connectable=0;strokeColor=inherit;overflow=hidden;fillColor=none;top=0;left=0;bottom=0;right=0;pointerEvents=1;fontFamily=Times New Roman;" vertex="1" parent="4BjtTrV5bBAlcVHx1rWV-177">
          <mxGeometry x="80" width="40" height="40" as="geometry">
            <mxRectangle width="40" height="40" as="alternateBounds" />
          </mxGeometry>
        </mxCell>
        <mxCell id="4BjtTrV5bBAlcVHx1rWV-181" value="16" style="shape=partialRectangle;html=1;whiteSpace=wrap;connectable=0;strokeColor=inherit;overflow=hidden;fillColor=none;top=0;left=0;bottom=0;right=0;pointerEvents=1;fontFamily=Times New Roman;" vertex="1" parent="4BjtTrV5bBAlcVHx1rWV-177">
          <mxGeometry x="120" width="40" height="40" as="geometry">
            <mxRectangle width="40" height="40" as="alternateBounds" />
          </mxGeometry>
        </mxCell>
        <mxCell id="4BjtTrV5bBAlcVHx1rWV-182" value="" style="endArrow=classic;html=1;rounded=0;" edge="1" parent="1">
          <mxGeometry width="50" height="50" relative="1" as="geometry">
            <mxPoint x="320" y="-200" as="sourcePoint" />
            <mxPoint x="530" y="-200" as="targetPoint" />
          </mxGeometry>
        </mxCell>
        <mxCell id="4BjtTrV5bBAlcVHx1rWV-183" value="" style="endArrow=classic;html=1;rounded=0;" edge="1" parent="1">
          <mxGeometry width="50" height="50" relative="1" as="geometry">
            <mxPoint x="320" y="-200" as="sourcePoint" />
            <mxPoint x="320" as="targetPoint" />
          </mxGeometry>
        </mxCell>
        <mxCell id="4BjtTrV5bBAlcVHx1rWV-184" value="&lt;font face=&quot;Times New Roman&quot; style=&quot;font-size: 20px;&quot;&gt;j&lt;/font&gt;" style="text;html=1;strokeColor=none;fillColor=none;align=center;verticalAlign=middle;whiteSpace=wrap;rounded=0;fontSize=20;" vertex="1" parent="1">
          <mxGeometry x="520" y="-220" width="60" height="30" as="geometry" />
        </mxCell>
        <mxCell id="4BjtTrV5bBAlcVHx1rWV-185" value="&lt;font face=&quot;Times New Roman&quot; style=&quot;font-size: 20px;&quot;&gt;i&lt;/font&gt;" style="text;html=1;strokeColor=none;fillColor=none;align=center;verticalAlign=middle;whiteSpace=wrap;rounded=0;fontSize=20;" vertex="1" parent="1">
          <mxGeometry x="290" width="60" height="30" as="geometry" />
        </mxCell>
        <mxCell id="4BjtTrV5bBAlcVHx1rWV-212" value="" style="shape=table;startSize=0;container=1;collapsible=0;childLayout=tableLayout;fontFamily=Times New Roman;fillColor=#d5e8d4;strokeColor=#82b366;" vertex="1" parent="1">
          <mxGeometry x="-260" y="360" width="160" height="160" as="geometry" />
        </mxCell>
        <mxCell id="4BjtTrV5bBAlcVHx1rWV-213" value="" style="shape=tableRow;horizontal=0;startSize=0;swimlaneHead=0;swimlaneBody=0;strokeColor=inherit;top=0;left=0;bottom=0;right=0;collapsible=0;dropTarget=0;fillColor=none;points=[[0,0.5],[1,0.5]];portConstraint=eastwest;fontFamily=Times New Roman;" vertex="1" parent="4BjtTrV5bBAlcVHx1rWV-212">
          <mxGeometry width="160" height="40" as="geometry" />
        </mxCell>
        <mxCell id="4BjtTrV5bBAlcVHx1rWV-214" value="1" style="shape=partialRectangle;html=1;whiteSpace=wrap;connectable=0;strokeColor=inherit;overflow=hidden;fillColor=none;top=0;left=0;bottom=0;right=0;pointerEvents=1;fontFamily=Times New Roman;" vertex="1" parent="4BjtTrV5bBAlcVHx1rWV-213">
          <mxGeometry width="40" height="40" as="geometry">
            <mxRectangle width="40" height="40" as="alternateBounds" />
          </mxGeometry>
        </mxCell>
        <mxCell id="4BjtTrV5bBAlcVHx1rWV-215" value="2" style="shape=partialRectangle;html=1;whiteSpace=wrap;connectable=0;strokeColor=inherit;overflow=hidden;fillColor=none;top=0;left=0;bottom=0;right=0;pointerEvents=1;fontFamily=Times New Roman;" vertex="1" parent="4BjtTrV5bBAlcVHx1rWV-213">
          <mxGeometry x="40" width="40" height="40" as="geometry">
            <mxRectangle width="40" height="40" as="alternateBounds" />
          </mxGeometry>
        </mxCell>
        <mxCell id="4BjtTrV5bBAlcVHx1rWV-216" value="3" style="shape=partialRectangle;html=1;whiteSpace=wrap;connectable=0;strokeColor=inherit;overflow=hidden;fillColor=none;top=0;left=0;bottom=0;right=0;pointerEvents=1;fontFamily=Times New Roman;" vertex="1" parent="4BjtTrV5bBAlcVHx1rWV-213">
          <mxGeometry x="80" width="40" height="40" as="geometry">
            <mxRectangle width="40" height="40" as="alternateBounds" />
          </mxGeometry>
        </mxCell>
        <mxCell id="4BjtTrV5bBAlcVHx1rWV-217" value="4" style="shape=partialRectangle;html=1;whiteSpace=wrap;connectable=0;strokeColor=inherit;overflow=hidden;fillColor=none;top=0;left=0;bottom=0;right=0;pointerEvents=1;fontFamily=Times New Roman;" vertex="1" parent="4BjtTrV5bBAlcVHx1rWV-213">
          <mxGeometry x="120" width="40" height="40" as="geometry">
            <mxRectangle width="40" height="40" as="alternateBounds" />
          </mxGeometry>
        </mxCell>
        <mxCell id="4BjtTrV5bBAlcVHx1rWV-218" value="" style="shape=tableRow;horizontal=0;startSize=0;swimlaneHead=0;swimlaneBody=0;strokeColor=inherit;top=0;left=0;bottom=0;right=0;collapsible=0;dropTarget=0;fillColor=none;points=[[0,0.5],[1,0.5]];portConstraint=eastwest;fontFamily=Times New Roman;" vertex="1" parent="4BjtTrV5bBAlcVHx1rWV-212">
          <mxGeometry y="40" width="160" height="40" as="geometry" />
        </mxCell>
        <mxCell id="4BjtTrV5bBAlcVHx1rWV-219" value="5" style="shape=partialRectangle;html=1;whiteSpace=wrap;connectable=0;strokeColor=inherit;overflow=hidden;fillColor=none;top=0;left=0;bottom=0;right=0;pointerEvents=1;fontFamily=Times New Roman;" vertex="1" parent="4BjtTrV5bBAlcVHx1rWV-218">
          <mxGeometry width="40" height="40" as="geometry">
            <mxRectangle width="40" height="40" as="alternateBounds" />
          </mxGeometry>
        </mxCell>
        <mxCell id="4BjtTrV5bBAlcVHx1rWV-220" value="6" style="shape=partialRectangle;html=1;whiteSpace=wrap;connectable=0;strokeColor=inherit;overflow=hidden;fillColor=none;top=0;left=0;bottom=0;right=0;pointerEvents=1;fontFamily=Times New Roman;" vertex="1" parent="4BjtTrV5bBAlcVHx1rWV-218">
          <mxGeometry x="40" width="40" height="40" as="geometry">
            <mxRectangle width="40" height="40" as="alternateBounds" />
          </mxGeometry>
        </mxCell>
        <mxCell id="4BjtTrV5bBAlcVHx1rWV-221" value="7" style="shape=partialRectangle;html=1;whiteSpace=wrap;connectable=0;strokeColor=inherit;overflow=hidden;fillColor=none;top=0;left=0;bottom=0;right=0;pointerEvents=1;fontFamily=Times New Roman;" vertex="1" parent="4BjtTrV5bBAlcVHx1rWV-218">
          <mxGeometry x="80" width="40" height="40" as="geometry">
            <mxRectangle width="40" height="40" as="alternateBounds" />
          </mxGeometry>
        </mxCell>
        <mxCell id="4BjtTrV5bBAlcVHx1rWV-222" value="8" style="shape=partialRectangle;html=1;whiteSpace=wrap;connectable=0;strokeColor=inherit;overflow=hidden;fillColor=none;top=0;left=0;bottom=0;right=0;pointerEvents=1;fontFamily=Times New Roman;" vertex="1" parent="4BjtTrV5bBAlcVHx1rWV-218">
          <mxGeometry x="120" width="40" height="40" as="geometry">
            <mxRectangle width="40" height="40" as="alternateBounds" />
          </mxGeometry>
        </mxCell>
        <mxCell id="4BjtTrV5bBAlcVHx1rWV-223" value="" style="shape=tableRow;horizontal=0;startSize=0;swimlaneHead=0;swimlaneBody=0;strokeColor=inherit;top=0;left=0;bottom=0;right=0;collapsible=0;dropTarget=0;fillColor=none;points=[[0,0.5],[1,0.5]];portConstraint=eastwest;fontFamily=Times New Roman;" vertex="1" parent="4BjtTrV5bBAlcVHx1rWV-212">
          <mxGeometry y="80" width="160" height="40" as="geometry" />
        </mxCell>
        <mxCell id="4BjtTrV5bBAlcVHx1rWV-224" value="9" style="shape=partialRectangle;html=1;whiteSpace=wrap;connectable=0;strokeColor=inherit;overflow=hidden;fillColor=none;top=0;left=0;bottom=0;right=0;pointerEvents=1;fontFamily=Times New Roman;" vertex="1" parent="4BjtTrV5bBAlcVHx1rWV-223">
          <mxGeometry width="40" height="40" as="geometry">
            <mxRectangle width="40" height="40" as="alternateBounds" />
          </mxGeometry>
        </mxCell>
        <mxCell id="4BjtTrV5bBAlcVHx1rWV-225" value="10" style="shape=partialRectangle;html=1;whiteSpace=wrap;connectable=0;strokeColor=inherit;overflow=hidden;fillColor=none;top=0;left=0;bottom=0;right=0;pointerEvents=1;fontFamily=Times New Roman;" vertex="1" parent="4BjtTrV5bBAlcVHx1rWV-223">
          <mxGeometry x="40" width="40" height="40" as="geometry">
            <mxRectangle width="40" height="40" as="alternateBounds" />
          </mxGeometry>
        </mxCell>
        <mxCell id="4BjtTrV5bBAlcVHx1rWV-226" value="11" style="shape=partialRectangle;html=1;whiteSpace=wrap;connectable=0;strokeColor=inherit;overflow=hidden;fillColor=none;top=0;left=0;bottom=0;right=0;pointerEvents=1;fontFamily=Times New Roman;" vertex="1" parent="4BjtTrV5bBAlcVHx1rWV-223">
          <mxGeometry x="80" width="40" height="40" as="geometry">
            <mxRectangle width="40" height="40" as="alternateBounds" />
          </mxGeometry>
        </mxCell>
        <mxCell id="4BjtTrV5bBAlcVHx1rWV-227" value="12" style="shape=partialRectangle;html=1;whiteSpace=wrap;connectable=0;strokeColor=inherit;overflow=hidden;fillColor=none;top=0;left=0;bottom=0;right=0;pointerEvents=1;fontFamily=Times New Roman;" vertex="1" parent="4BjtTrV5bBAlcVHx1rWV-223">
          <mxGeometry x="120" width="40" height="40" as="geometry">
            <mxRectangle width="40" height="40" as="alternateBounds" />
          </mxGeometry>
        </mxCell>
        <mxCell id="4BjtTrV5bBAlcVHx1rWV-228" value="" style="shape=tableRow;horizontal=0;startSize=0;swimlaneHead=0;swimlaneBody=0;strokeColor=inherit;top=0;left=0;bottom=0;right=0;collapsible=0;dropTarget=0;fillColor=none;points=[[0,0.5],[1,0.5]];portConstraint=eastwest;fontFamily=Times New Roman;" vertex="1" parent="4BjtTrV5bBAlcVHx1rWV-212">
          <mxGeometry y="120" width="160" height="40" as="geometry" />
        </mxCell>
        <mxCell id="4BjtTrV5bBAlcVHx1rWV-229" value="13" style="shape=partialRectangle;html=1;whiteSpace=wrap;connectable=0;strokeColor=inherit;overflow=hidden;fillColor=none;top=0;left=0;bottom=0;right=0;pointerEvents=1;fontFamily=Times New Roman;" vertex="1" parent="4BjtTrV5bBAlcVHx1rWV-228">
          <mxGeometry width="40" height="40" as="geometry">
            <mxRectangle width="40" height="40" as="alternateBounds" />
          </mxGeometry>
        </mxCell>
        <mxCell id="4BjtTrV5bBAlcVHx1rWV-230" value="14" style="shape=partialRectangle;html=1;whiteSpace=wrap;connectable=0;strokeColor=inherit;overflow=hidden;fillColor=none;top=0;left=0;bottom=0;right=0;pointerEvents=1;fontFamily=Times New Roman;" vertex="1" parent="4BjtTrV5bBAlcVHx1rWV-228">
          <mxGeometry x="40" width="40" height="40" as="geometry">
            <mxRectangle width="40" height="40" as="alternateBounds" />
          </mxGeometry>
        </mxCell>
        <mxCell id="4BjtTrV5bBAlcVHx1rWV-231" value="15" style="shape=partialRectangle;html=1;whiteSpace=wrap;connectable=0;strokeColor=inherit;overflow=hidden;fillColor=none;top=0;left=0;bottom=0;right=0;pointerEvents=1;fontFamily=Times New Roman;" vertex="1" parent="4BjtTrV5bBAlcVHx1rWV-228">
          <mxGeometry x="80" width="40" height="40" as="geometry">
            <mxRectangle width="40" height="40" as="alternateBounds" />
          </mxGeometry>
        </mxCell>
        <mxCell id="4BjtTrV5bBAlcVHx1rWV-232" value="16" style="shape=partialRectangle;html=1;whiteSpace=wrap;connectable=0;strokeColor=inherit;overflow=hidden;fillColor=none;top=0;left=0;bottom=0;right=0;pointerEvents=1;fontFamily=Times New Roman;" vertex="1" parent="4BjtTrV5bBAlcVHx1rWV-228">
          <mxGeometry x="120" width="40" height="40" as="geometry">
            <mxRectangle width="40" height="40" as="alternateBounds" />
          </mxGeometry>
        </mxCell>
        <mxCell id="4BjtTrV5bBAlcVHx1rWV-233" value="" style="endArrow=classic;html=1;rounded=0;" edge="1" parent="1">
          <mxGeometry width="50" height="50" relative="1" as="geometry">
            <mxPoint x="-260" y="360" as="sourcePoint" />
            <mxPoint x="-70" y="360" as="targetPoint" />
          </mxGeometry>
        </mxCell>
        <mxCell id="4BjtTrV5bBAlcVHx1rWV-234" value="" style="endArrow=classic;html=1;rounded=0;" edge="1" parent="1">
          <mxGeometry width="50" height="50" relative="1" as="geometry">
            <mxPoint x="-260" y="360" as="sourcePoint" />
            <mxPoint x="-260" y="560" as="targetPoint" />
          </mxGeometry>
        </mxCell>
        <mxCell id="4BjtTrV5bBAlcVHx1rWV-235" value="&lt;font face=&quot;Times New Roman&quot; style=&quot;font-size: 20px;&quot;&gt;j&lt;/font&gt;" style="text;html=1;strokeColor=none;fillColor=none;align=center;verticalAlign=middle;whiteSpace=wrap;rounded=0;fontSize=20;" vertex="1" parent="1">
          <mxGeometry x="-90" y="340" width="60" height="30" as="geometry" />
        </mxCell>
        <mxCell id="4BjtTrV5bBAlcVHx1rWV-236" value="&lt;font face=&quot;Times New Roman&quot; style=&quot;font-size: 20px;&quot;&gt;i&lt;/font&gt;" style="text;html=1;strokeColor=none;fillColor=none;align=center;verticalAlign=middle;whiteSpace=wrap;rounded=0;fontSize=20;" vertex="1" parent="1">
          <mxGeometry x="-290" y="560" width="60" height="30" as="geometry" />
        </mxCell>
        <mxCell id="4BjtTrV5bBAlcVHx1rWV-237" value="" style="shape=flexArrow;endArrow=classic;html=1;rounded=0;" edge="1" parent="1">
          <mxGeometry width="50" height="50" relative="1" as="geometry">
            <mxPoint x="-80" y="439.41" as="sourcePoint" />
            <mxPoint x="-15" y="439.41" as="targetPoint" />
          </mxGeometry>
        </mxCell>
        <mxCell id="4BjtTrV5bBAlcVHx1rWV-238" value="" style="shape=flexArrow;endArrow=classic;html=1;rounded=0;" edge="1" parent="1">
          <mxGeometry width="50" height="50" relative="1" as="geometry">
            <mxPoint x="399.40999999999997" y="-30" as="sourcePoint" />
            <mxPoint x="399.40999999999997" y="30" as="targetPoint" />
          </mxGeometry>
        </mxCell>
        <mxCell id="4BjtTrV5bBAlcVHx1rWV-240" value="coordinate of&lt;br&gt;Systolic Array" style="edgeLabel;html=1;align=center;verticalAlign=middle;resizable=0;points=[];fontFamily=Times New Roman;" vertex="1" connectable="0" parent="1">
          <mxGeometry x="549.9966666666666" y="390" as="geometry">
            <mxPoint x="-8" y="-4" as="offset" />
          </mxGeometry>
        </mxCell>
        <mxCell id="4BjtTrV5bBAlcVHx1rWV-241" value="coordinate of&lt;br&gt;input Matrix b" style="edgeLabel;html=1;align=center;verticalAlign=middle;resizable=0;points=[];fontFamily=Times New Roman;" vertex="1" connectable="0" parent="1">
          <mxGeometry x="-50.003333333333444" y="390" as="geometry">
            <mxPoint x="-8" y="-4" as="offset" />
          </mxGeometry>
        </mxCell>
        <mxCell id="4BjtTrV5bBAlcVHx1rWV-242" value="coordinate of&lt;br&gt;input Matrix a" style="edgeLabel;html=1;align=center;verticalAlign=middle;resizable=0;points=[];fontFamily=Times New Roman;" vertex="1" connectable="0" parent="1">
          <mxGeometry x="539.9966666666666" y="-170" as="geometry">
            <mxPoint x="-8" y="-4" as="offset" />
          </mxGeometry>
        </mxCell>
        <mxCell id="4BjtTrV5bBAlcVHx1rWV-243" value="" style="shape=table;startSize=0;container=1;collapsible=0;childLayout=tableLayout;fontFamily=Times New Roman;fillColor=#ffe6cc;strokeColor=#d79b00;" vertex="1" parent="1">
          <mxGeometry x="560" y="550" width="160" height="160" as="geometry" />
        </mxCell>
        <mxCell id="4BjtTrV5bBAlcVHx1rWV-244" value="" style="shape=tableRow;horizontal=0;startSize=0;swimlaneHead=0;swimlaneBody=0;strokeColor=inherit;top=0;left=0;bottom=0;right=0;collapsible=0;dropTarget=0;fillColor=none;points=[[0,0.5],[1,0.5]];portConstraint=eastwest;fontFamily=Times New Roman;" vertex="1" parent="4BjtTrV5bBAlcVHx1rWV-243">
          <mxGeometry width="160" height="40" as="geometry" />
        </mxCell>
        <mxCell id="4BjtTrV5bBAlcVHx1rWV-245" value="90" style="shape=partialRectangle;html=1;whiteSpace=wrap;connectable=0;strokeColor=inherit;overflow=hidden;fillColor=none;top=0;left=0;bottom=0;right=0;pointerEvents=1;fontFamily=Times New Roman;" vertex="1" parent="4BjtTrV5bBAlcVHx1rWV-244">
          <mxGeometry width="40" height="40" as="geometry">
            <mxRectangle width="40" height="40" as="alternateBounds" />
          </mxGeometry>
        </mxCell>
        <mxCell id="4BjtTrV5bBAlcVHx1rWV-246" value="100" style="shape=partialRectangle;html=1;whiteSpace=wrap;connectable=0;strokeColor=inherit;overflow=hidden;fillColor=none;top=0;left=0;bottom=0;right=0;pointerEvents=1;fontFamily=Times New Roman;" vertex="1" parent="4BjtTrV5bBAlcVHx1rWV-244">
          <mxGeometry x="40" width="40" height="40" as="geometry">
            <mxRectangle width="40" height="40" as="alternateBounds" />
          </mxGeometry>
        </mxCell>
        <mxCell id="4BjtTrV5bBAlcVHx1rWV-247" value="110" style="shape=partialRectangle;html=1;whiteSpace=wrap;connectable=0;strokeColor=inherit;overflow=hidden;fillColor=none;top=0;left=0;bottom=0;right=0;pointerEvents=1;fontFamily=Times New Roman;" vertex="1" parent="4BjtTrV5bBAlcVHx1rWV-244">
          <mxGeometry x="80" width="40" height="40" as="geometry">
            <mxRectangle width="40" height="40" as="alternateBounds" />
          </mxGeometry>
        </mxCell>
        <mxCell id="4BjtTrV5bBAlcVHx1rWV-248" value="120" style="shape=partialRectangle;html=1;whiteSpace=wrap;connectable=0;strokeColor=inherit;overflow=hidden;fillColor=none;top=0;left=0;bottom=0;right=0;pointerEvents=1;fontFamily=Times New Roman;" vertex="1" parent="4BjtTrV5bBAlcVHx1rWV-244">
          <mxGeometry x="120" width="40" height="40" as="geometry">
            <mxRectangle width="40" height="40" as="alternateBounds" />
          </mxGeometry>
        </mxCell>
        <mxCell id="4BjtTrV5bBAlcVHx1rWV-249" value="" style="shape=tableRow;horizontal=0;startSize=0;swimlaneHead=0;swimlaneBody=0;strokeColor=inherit;top=0;left=0;bottom=0;right=0;collapsible=0;dropTarget=0;fillColor=none;points=[[0,0.5],[1,0.5]];portConstraint=eastwest;fontFamily=Times New Roman;" vertex="1" parent="4BjtTrV5bBAlcVHx1rWV-243">
          <mxGeometry y="40" width="160" height="40" as="geometry" />
        </mxCell>
        <mxCell id="4BjtTrV5bBAlcVHx1rWV-250" value="202" style="shape=partialRectangle;html=1;whiteSpace=wrap;connectable=0;strokeColor=inherit;overflow=hidden;fillColor=none;top=0;left=0;bottom=0;right=0;pointerEvents=1;fontFamily=Times New Roman;" vertex="1" parent="4BjtTrV5bBAlcVHx1rWV-249">
          <mxGeometry width="40" height="40" as="geometry">
            <mxRectangle width="40" height="40" as="alternateBounds" />
          </mxGeometry>
        </mxCell>
        <mxCell id="4BjtTrV5bBAlcVHx1rWV-251" value="228" style="shape=partialRectangle;html=1;whiteSpace=wrap;connectable=0;strokeColor=inherit;overflow=hidden;fillColor=none;top=0;left=0;bottom=0;right=0;pointerEvents=1;fontFamily=Times New Roman;" vertex="1" parent="4BjtTrV5bBAlcVHx1rWV-249">
          <mxGeometry x="40" width="40" height="40" as="geometry">
            <mxRectangle width="40" height="40" as="alternateBounds" />
          </mxGeometry>
        </mxCell>
        <mxCell id="4BjtTrV5bBAlcVHx1rWV-252" value="254" style="shape=partialRectangle;html=1;whiteSpace=wrap;connectable=0;strokeColor=inherit;overflow=hidden;fillColor=none;top=0;left=0;bottom=0;right=0;pointerEvents=1;fontFamily=Times New Roman;" vertex="1" parent="4BjtTrV5bBAlcVHx1rWV-249">
          <mxGeometry x="80" width="40" height="40" as="geometry">
            <mxRectangle width="40" height="40" as="alternateBounds" />
          </mxGeometry>
        </mxCell>
        <mxCell id="4BjtTrV5bBAlcVHx1rWV-253" value="280" style="shape=partialRectangle;html=1;whiteSpace=wrap;connectable=0;strokeColor=inherit;overflow=hidden;fillColor=none;top=0;left=0;bottom=0;right=0;pointerEvents=1;fontFamily=Times New Roman;" vertex="1" parent="4BjtTrV5bBAlcVHx1rWV-249">
          <mxGeometry x="120" width="40" height="40" as="geometry">
            <mxRectangle width="40" height="40" as="alternateBounds" />
          </mxGeometry>
        </mxCell>
        <mxCell id="4BjtTrV5bBAlcVHx1rWV-254" value="" style="shape=tableRow;horizontal=0;startSize=0;swimlaneHead=0;swimlaneBody=0;strokeColor=inherit;top=0;left=0;bottom=0;right=0;collapsible=0;dropTarget=0;fillColor=none;points=[[0,0.5],[1,0.5]];portConstraint=eastwest;fontFamily=Times New Roman;" vertex="1" parent="4BjtTrV5bBAlcVHx1rWV-243">
          <mxGeometry y="80" width="160" height="40" as="geometry" />
        </mxCell>
        <mxCell id="4BjtTrV5bBAlcVHx1rWV-255" value="314" style="shape=partialRectangle;html=1;whiteSpace=wrap;connectable=0;strokeColor=inherit;overflow=hidden;fillColor=none;top=0;left=0;bottom=0;right=0;pointerEvents=1;fontFamily=Times New Roman;" vertex="1" parent="4BjtTrV5bBAlcVHx1rWV-254">
          <mxGeometry width="40" height="40" as="geometry">
            <mxRectangle width="40" height="40" as="alternateBounds" />
          </mxGeometry>
        </mxCell>
        <mxCell id="4BjtTrV5bBAlcVHx1rWV-256" value="356" style="shape=partialRectangle;html=1;whiteSpace=wrap;connectable=0;strokeColor=inherit;overflow=hidden;fillColor=none;top=0;left=0;bottom=0;right=0;pointerEvents=1;fontFamily=Times New Roman;" vertex="1" parent="4BjtTrV5bBAlcVHx1rWV-254">
          <mxGeometry x="40" width="40" height="40" as="geometry">
            <mxRectangle width="40" height="40" as="alternateBounds" />
          </mxGeometry>
        </mxCell>
        <mxCell id="4BjtTrV5bBAlcVHx1rWV-257" value="368" style="shape=partialRectangle;html=1;whiteSpace=wrap;connectable=0;strokeColor=inherit;overflow=hidden;fillColor=none;top=0;left=0;bottom=0;right=0;pointerEvents=1;fontFamily=Times New Roman;" vertex="1" parent="4BjtTrV5bBAlcVHx1rWV-254">
          <mxGeometry x="80" width="40" height="40" as="geometry">
            <mxRectangle width="40" height="40" as="alternateBounds" />
          </mxGeometry>
        </mxCell>
        <mxCell id="4BjtTrV5bBAlcVHx1rWV-258" value="440" style="shape=partialRectangle;html=1;whiteSpace=wrap;connectable=0;strokeColor=inherit;overflow=hidden;fillColor=none;top=0;left=0;bottom=0;right=0;pointerEvents=1;fontFamily=Times New Roman;" vertex="1" parent="4BjtTrV5bBAlcVHx1rWV-254">
          <mxGeometry x="120" width="40" height="40" as="geometry">
            <mxRectangle width="40" height="40" as="alternateBounds" />
          </mxGeometry>
        </mxCell>
        <mxCell id="4BjtTrV5bBAlcVHx1rWV-259" value="" style="shape=tableRow;horizontal=0;startSize=0;swimlaneHead=0;swimlaneBody=0;strokeColor=inherit;top=0;left=0;bottom=0;right=0;collapsible=0;dropTarget=0;fillColor=none;points=[[0,0.5],[1,0.5]];portConstraint=eastwest;fontFamily=Times New Roman;" vertex="1" parent="4BjtTrV5bBAlcVHx1rWV-243">
          <mxGeometry y="120" width="160" height="40" as="geometry" />
        </mxCell>
        <mxCell id="4BjtTrV5bBAlcVHx1rWV-260" value="426" style="shape=partialRectangle;html=1;whiteSpace=wrap;connectable=0;strokeColor=inherit;overflow=hidden;fillColor=none;top=0;left=0;bottom=0;right=0;pointerEvents=1;fontFamily=Times New Roman;" vertex="1" parent="4BjtTrV5bBAlcVHx1rWV-259">
          <mxGeometry width="40" height="40" as="geometry">
            <mxRectangle width="40" height="40" as="alternateBounds" />
          </mxGeometry>
        </mxCell>
        <mxCell id="4BjtTrV5bBAlcVHx1rWV-261" value="484" style="shape=partialRectangle;html=1;whiteSpace=wrap;connectable=0;strokeColor=inherit;overflow=hidden;fillColor=none;top=0;left=0;bottom=0;right=0;pointerEvents=1;fontFamily=Times New Roman;" vertex="1" parent="4BjtTrV5bBAlcVHx1rWV-259">
          <mxGeometry x="40" width="40" height="40" as="geometry">
            <mxRectangle width="40" height="40" as="alternateBounds" />
          </mxGeometry>
        </mxCell>
        <mxCell id="4BjtTrV5bBAlcVHx1rWV-262" value="542" style="shape=partialRectangle;html=1;whiteSpace=wrap;connectable=0;strokeColor=inherit;overflow=hidden;fillColor=none;top=0;left=0;bottom=0;right=0;pointerEvents=1;fontFamily=Times New Roman;" vertex="1" parent="4BjtTrV5bBAlcVHx1rWV-259">
          <mxGeometry x="80" width="40" height="40" as="geometry">
            <mxRectangle width="40" height="40" as="alternateBounds" />
          </mxGeometry>
        </mxCell>
        <mxCell id="4BjtTrV5bBAlcVHx1rWV-263" value="600" style="shape=partialRectangle;html=1;whiteSpace=wrap;connectable=0;strokeColor=inherit;overflow=hidden;fillColor=none;top=0;left=0;bottom=0;right=0;pointerEvents=1;fontFamily=Times New Roman;" vertex="1" parent="4BjtTrV5bBAlcVHx1rWV-259">
          <mxGeometry x="120" width="40" height="40" as="geometry">
            <mxRectangle width="40" height="40" as="alternateBounds" />
          </mxGeometry>
        </mxCell>
        <mxCell id="4BjtTrV5bBAlcVHx1rWV-264" value="" style="endArrow=classic;html=1;rounded=0;" edge="1" parent="1">
          <mxGeometry width="50" height="50" relative="1" as="geometry">
            <mxPoint x="560" y="550" as="sourcePoint" />
            <mxPoint x="560" y="750" as="targetPoint" />
          </mxGeometry>
        </mxCell>
        <mxCell id="4BjtTrV5bBAlcVHx1rWV-265" value="&lt;font face=&quot;Times New Roman&quot; style=&quot;font-size: 20px;&quot;&gt;i&lt;/font&gt;" style="text;html=1;strokeColor=none;fillColor=none;align=center;verticalAlign=middle;whiteSpace=wrap;rounded=0;fontSize=20;" vertex="1" parent="1">
          <mxGeometry x="530" y="750" width="60" height="30" as="geometry" />
        </mxCell>
        <mxCell id="4BjtTrV5bBAlcVHx1rWV-266" value="" style="endArrow=classic;html=1;rounded=0;" edge="1" parent="1">
          <mxGeometry width="50" height="50" relative="1" as="geometry">
            <mxPoint x="560" y="550" as="sourcePoint" />
            <mxPoint x="790" y="550" as="targetPoint" />
          </mxGeometry>
        </mxCell>
        <mxCell id="4BjtTrV5bBAlcVHx1rWV-267" value="&lt;font face=&quot;Times New Roman&quot; style=&quot;font-size: 20px;&quot;&gt;j&lt;/font&gt;" style="text;html=1;strokeColor=none;fillColor=none;align=center;verticalAlign=middle;whiteSpace=wrap;rounded=0;fontSize=20;" vertex="1" parent="1">
          <mxGeometry x="790" y="530" width="60" height="30" as="geometry" />
        </mxCell>
        <mxCell id="4BjtTrV5bBAlcVHx1rWV-268" value="" style="shape=flexArrow;endArrow=classic;html=1;rounded=0;" edge="1" parent="1">
          <mxGeometry width="50" height="50" relative="1" as="geometry">
            <mxPoint x="495" y="520" as="sourcePoint" />
            <mxPoint x="550" y="550" as="targetPoint" />
          </mxGeometry>
        </mxCell>
        <mxCell id="4BjtTrV5bBAlcVHx1rWV-269" value="coordinate of&lt;br&gt;output Matrix" style="edgeLabel;html=1;align=center;verticalAlign=middle;resizable=0;points=[];fontFamily=Times New Roman;" vertex="1" connectable="0" parent="1">
          <mxGeometry x="779.9966666666666" y="575" as="geometry">
            <mxPoint x="-8" y="-4" as="offset" />
          </mxGeometry>
        </mxCell>
      </root>
    </mxGraphModel>
  </diagram>
</mxfile>
